<svg width="36" height="36" fill="none" xmlns="http://www.w3.org/2000/svg">
<path fill-rule="evenodd" clip-rule="evenodd" d="M23.8809 14.6764C24.4286 15.2242 25.3167 15.2242 25.8644 14.6764C26.4121 14.1287 26.4121 13.2406 25.8644 12.6929L18.6386 5.46706L27.3877 0.415764C29.4338 -0.765544 31.9914 0.711092 31.9914 3.07371L31.9914 18.5109L21.4153 21.0411C20.6619 21.2213 20.1973 21.9781 20.3776 22.7315C20.5578 23.4848 21.3146 23.9494 22.068 23.7692L31.9914 21.3952V32.9263C31.9913 35.2889 29.4337 36.7655 27.3877 35.5842L15.2153 28.5565L16.9185 16.2554C17.0247 15.4881 16.4889 14.78 15.7216 14.6737C14.9543 14.5675 14.2461 15.1034 14.1399 15.8707L12.593 27.0425L1.53456 20.6579C-0.511522 19.4766 -0.51152 16.5234 1.53456 15.3421L16.1236 6.9191L23.8809 14.6764Z" fill="url(#paint0_linear_2483_59812)"/>
<defs>
<linearGradient id="paint0_linear_2483_59812" x1="12.4828" y1="5.61024" x2="31.9783" y2="35.9055" gradientUnits="userSpaceOnUse">
<stop stop-color="#FF61A2"/>
<stop offset="1" stop-color="#D8005A"/>
</linearGradient>
</defs>
</svg>
