<svg width="131" height="36" viewBox="0 0 131 36" fill="none" xmlns="http://www.w3.org/2000/svg">
<path d="M52.7876 7.99391H50.7385C50.6801 7.65788 50.5723 7.3602 50.4153 7.10087C50.2582 6.83789 50.0628 6.61509 49.8291 6.43246C49.5953 6.24984 49.3287 6.11287 49.0292 6.02156C48.7333 5.92659 48.4137 5.87911 48.0704 5.87911C47.4604 5.87911 46.9198 6.03252 46.4487 6.33932C45.9775 6.64248 45.6086 7.08809 45.342 7.67614C45.0753 8.26054 44.942 8.9746 44.942 9.81833C44.942 10.6767 45.0753 11.3999 45.342 11.9879C45.6122 12.5723 45.9811 13.0143 46.4487 13.3138C46.9198 13.6096 47.4586 13.7575 48.0649 13.7575C48.4009 13.7575 48.715 13.7137 49.0072 13.6261C49.3031 13.5347 49.5679 13.4014 49.8017 13.2261C50.0391 13.0508 50.2381 12.8353 50.3988 12.5796C50.5632 12.3239 50.6764 12.0317 50.7385 11.703L52.7876 11.714C52.7109 12.2472 52.5447 12.7476 52.289 13.2151C52.037 13.6827 51.7064 14.0954 51.2974 14.4533C50.8883 14.8076 50.4098 15.0852 49.8619 15.2861C49.314 15.4834 48.7059 15.582 48.0375 15.582C47.0513 15.582 46.1711 15.3537 45.3967 14.8971C44.6224 14.4406 44.0124 13.7813 43.5668 12.9193C43.1212 12.0573 42.8984 11.0237 42.8984 9.81833C42.8984 8.60935 43.1231 7.5757 43.5723 6.71736C44.0216 5.85537 44.6334 5.19609 45.4077 4.73953C46.182 4.28297 47.0586 4.05469 48.0375 4.05469C48.6621 4.05469 49.2428 4.14235 49.7797 4.31767C50.3167 4.49299 50.7951 4.75049 51.2152 5.09017C51.6352 5.4262 51.9804 5.83893 52.2507 6.32837C52.5246 6.81415 52.7036 7.36933 52.7876 7.99391Z" fill="white"/>
<path d="M56.5446 10.4977V15.4286H54.5613V4.20809H56.5008V8.44316H56.5994C56.7966 7.96834 57.1016 7.59396 57.5144 7.32002C57.9307 7.04243 58.4604 6.90364 59.1032 6.90364C59.6876 6.90364 60.1971 7.02599 60.6318 7.27071C61.0664 7.51543 61.4024 7.87337 61.6399 8.34455C61.8809 8.81572 62.0015 9.39099 62.0015 10.0704V15.4286H60.0181V10.3772C60.0181 9.81102 59.872 9.3709 59.5798 9.05678C59.2913 8.73902 58.8859 8.58013 58.3636 8.58013C58.0129 8.58013 57.6988 8.65683 57.4212 8.81024C57.1473 8.95999 56.9318 9.17731 56.7747 9.46221C56.6213 9.7471 56.5446 10.0923 56.5446 10.4977Z" fill="white"/>
<path d="M66.4447 15.5984C65.9115 15.5984 65.4311 15.5034 65.0038 15.3135C64.5801 15.1199 64.2441 14.835 63.9957 14.4588C63.751 14.0826 63.6286 13.6188 63.6286 13.0672C63.6286 12.5924 63.7163 12.1998 63.8916 11.8893C64.0669 11.5788 64.3062 11.3305 64.6093 11.1442C64.9125 10.9579 65.254 10.8173 65.6339 10.7223C66.0174 10.6237 66.4137 10.5525 66.8228 10.5087C67.3158 10.4575 67.7158 10.4119 68.0226 10.3717C68.3294 10.3279 68.5522 10.2621 68.691 10.1744C68.8334 10.0831 68.9047 9.94251 68.9047 9.75258V9.71971C68.9047 9.30698 68.7823 8.98739 68.5376 8.76093C68.2929 8.53448 67.9404 8.42125 67.4802 8.42125C66.9944 8.42125 66.6091 8.52717 66.3242 8.73902C66.0429 8.95086 65.853 9.20106 65.7544 9.4896L63.9026 9.22662C64.0487 8.71527 64.2897 8.28793 64.6258 7.9446C64.9618 7.59761 65.3727 7.33828 65.8585 7.16662C66.3443 6.9913 66.8812 6.90364 67.4692 6.90364C67.8747 6.90364 68.2783 6.95112 68.68 7.04608C69.0818 7.14105 69.4489 7.2981 69.7813 7.51725C70.1136 7.73275 70.3803 8.02678 70.5812 8.39933C70.7857 8.77189 70.888 9.23758 70.888 9.79641V15.4286H68.9814V14.2725H68.9156C68.7951 14.5063 68.6253 14.7255 68.4061 14.93C68.1906 15.1309 67.9185 15.2934 67.5898 15.4176C67.2647 15.5381 66.883 15.5984 66.4447 15.5984ZM66.9597 14.1411C67.3578 14.1411 67.703 14.0625 67.9952 13.9055C68.2874 13.7448 68.512 13.5329 68.6691 13.2699C68.8298 13.007 68.9102 12.7202 68.9102 12.4098V11.4181C68.8481 11.4693 68.7421 11.5167 68.5924 11.5606C68.4463 11.6044 68.2819 11.6428 68.0993 11.6756C67.9167 11.7085 67.7359 11.7377 67.5569 11.7633C67.3779 11.7889 67.2227 11.8108 67.0912 11.829C66.7954 11.8692 66.5306 11.935 66.2968 12.0263C66.063 12.1176 65.8786 12.2454 65.7434 12.4098C65.6083 12.5705 65.5407 12.7787 65.5407 13.0344C65.5407 13.3996 65.674 13.6754 65.9407 13.8616C66.2073 14.0479 66.547 14.1411 66.9597 14.1411Z" fill="white"/>
<path d="M76.553 15.5929C75.7312 15.5929 75.019 15.4121 74.4163 15.0505C73.8136 14.6889 73.3461 14.1831 73.0137 13.5329C72.685 12.8828 72.5206 12.1231 72.5206 11.2538C72.5206 10.3845 72.685 9.62292 73.0137 8.96912C73.3461 8.31533 73.8136 7.80763 74.4163 7.44603C75.019 7.08443 75.7312 6.90364 76.553 6.90364C77.3748 6.90364 78.0871 7.08443 78.6897 7.44603C79.2924 7.80763 79.7581 8.31533 80.0868 8.96912C80.4192 9.62292 80.5854 10.3845 80.5854 11.2538C80.5854 12.1231 80.4192 12.8828 80.0868 13.5329C79.7581 14.1831 79.2924 14.6889 78.6897 15.0505C78.0871 15.4121 77.3748 15.5929 76.553 15.5929ZM76.564 14.0041C77.0096 14.0041 77.3821 13.8817 77.6816 13.637C77.9811 13.3886 78.2039 13.0563 78.35 12.6399C78.4998 12.2235 78.5747 11.7596 78.5747 11.2483C78.5747 10.7333 78.4998 10.2676 78.35 9.8512C78.2039 9.43116 77.9811 9.09696 77.6816 8.84859C77.3821 8.60022 77.0096 8.47604 76.564 8.47604C76.1074 8.47604 75.7275 8.60022 75.4244 8.84859C75.1249 9.09696 74.9002 9.43116 74.7505 9.8512C74.6044 10.2676 74.5313 10.7333 74.5313 11.2483C74.5313 11.7596 74.6044 12.2235 74.7505 12.6399C74.9002 13.0563 75.1249 13.3886 75.4244 13.637C75.7275 13.8817 76.1074 14.0041 76.564 14.0041Z" fill="white"/>
<path d="M88.9199 9.23758L87.1119 9.43482C87.0608 9.25219 86.9713 9.08052 86.8435 8.91981C86.7193 8.7591 86.5513 8.62944 86.3394 8.53082C86.1276 8.43221 85.8682 8.3829 85.5614 8.3829C85.1487 8.3829 84.8017 8.47238 84.5205 8.65135C84.2429 8.83033 84.1059 9.06226 84.1096 9.34716C84.1059 9.59187 84.1954 9.79093 84.378 9.94434C84.5643 10.0977 84.8711 10.2238 85.2984 10.3224L86.7339 10.6292C87.5301 10.8008 88.1218 11.073 88.509 11.4455C88.8998 11.8181 89.097 12.3057 89.1007 12.9083C89.097 13.438 88.9418 13.9055 88.635 14.3109C88.3318 14.7127 87.91 15.0268 87.3694 15.2532C86.8288 15.4797 86.2079 15.5929 85.5066 15.5929C84.4766 15.5929 83.6475 15.3774 83.0193 14.9464C82.3911 14.5118 82.0167 13.9073 81.8961 13.133L83.8301 12.9467C83.9178 13.3266 84.1041 13.6133 84.389 13.8069C84.6739 14.0004 85.0446 14.0972 85.5012 14.0972C85.9723 14.0972 86.3504 14.0004 86.6353 13.8069C86.9238 13.6133 87.0681 13.374 87.0681 13.0891C87.0681 12.8481 86.9749 12.649 86.7887 12.492C86.606 12.3349 86.3211 12.2144 85.934 12.1304L84.4986 11.829C83.6913 11.661 83.0942 11.3779 82.707 10.9798C82.3198 10.578 82.1281 10.0704 82.1317 9.45673C82.1281 8.93808 82.2687 8.48882 82.5536 8.10896C82.8421 7.72545 83.2421 7.42959 83.7534 7.2214C84.2684 7.00956 84.862 6.90364 85.534 6.90364C86.5202 6.90364 87.2964 7.11365 87.8625 7.53369C88.4323 7.95373 88.7848 8.52169 88.9199 9.23758Z" fill="white"/>
<path d="M43.1833 31.6982V20.4778H50.481V22.1817H45.2159V25.2278H50.103V26.9317H45.2159V29.9944H50.5249V31.6982H43.1833Z" fill="white"/>
<path d="M54.4504 26.7674V31.6982H52.4671V23.2829H54.3627V24.7128H54.4613C54.6549 24.2417 54.9635 23.8673 55.3872 23.5897C55.8146 23.3121 56.3424 23.1733 56.9706 23.1733C57.5513 23.1733 58.0572 23.2975 58.4882 23.5459C58.9229 23.7942 59.2589 24.154 59.4963 24.6252C59.7374 25.0964 59.8561 25.668 59.8524 26.34V31.6982H57.8691V26.6468C57.8691 26.0844 57.723 25.6442 57.4308 25.3265C57.1423 25.0087 56.7423 24.8498 56.231 24.8498C55.884 24.8498 55.5753 24.9265 55.3051 25.0799C55.0384 25.2297 54.8284 25.447 54.675 25.7319C54.5252 26.0168 54.4504 26.3619 54.4504 26.7674Z" fill="white"/>
<path d="M65.5284 35.0293C64.8162 35.0293 64.2044 34.9325 63.693 34.7389C63.1817 34.549 62.7708 34.2933 62.4603 33.9719C62.1498 33.6505 61.9343 33.2944 61.8138 32.9036L63.5999 32.4707C63.6802 32.6351 63.7971 32.7976 63.9505 32.9584C64.1039 33.1227 64.3103 33.2579 64.5696 33.3638C64.8326 33.4734 65.1631 33.5281 65.5613 33.5281C66.1238 33.5281 66.5894 33.3912 66.9583 33.1172C67.3272 32.847 67.5117 32.4014 67.5117 31.7804V30.1861H67.4131C67.3108 30.3907 67.1611 30.6007 66.9638 30.8162C66.7702 31.0317 66.5127 31.2125 66.1913 31.3586C65.8736 31.5047 65.4736 31.5777 64.9915 31.5777C64.345 31.5777 63.7588 31.4261 63.2328 31.123C62.7105 30.8162 62.2941 30.3596 61.9836 29.7533C61.6768 29.1433 61.5234 28.38 61.5234 27.4632C61.5234 26.5391 61.6768 25.7593 61.9836 25.1238C62.2941 24.4846 62.7123 24.0006 63.2383 23.6719C63.7642 23.3395 64.3505 23.1733 64.997 23.1733C65.49 23.1733 65.8955 23.2573 66.2132 23.4253C66.5347 23.5897 66.7903 23.7888 66.9803 24.0225C67.1702 24.2526 67.3145 24.47 67.4131 24.6745H67.5227V23.2829H69.4786V31.8352C69.4786 32.5548 69.3069 33.1501 68.9636 33.6213C68.6202 34.0925 68.1509 34.4449 67.5555 34.6787C66.9602 34.9124 66.2845 35.0293 65.5284 35.0293ZM65.5448 30.0217C65.9649 30.0217 66.3228 29.9195 66.6187 29.7149C66.9145 29.5104 67.1391 29.2164 67.2926 28.8329C67.446 28.4493 67.5227 27.9891 67.5227 27.4522C67.5227 26.9226 67.446 26.4587 67.2926 26.0606C67.1428 25.6625 66.92 25.3539 66.6241 25.1347C66.3319 24.9119 65.9722 24.8005 65.5448 24.8005C65.1029 24.8005 64.734 24.9156 64.4381 25.1457C64.1423 25.3758 63.9195 25.6917 63.7697 26.0935C63.62 26.4916 63.5451 26.9445 63.5451 27.4522C63.5451 27.9672 63.62 28.4183 63.7697 28.8055C63.9231 29.189 64.1478 29.4885 64.4436 29.704C64.7431 29.9158 65.1102 30.0217 65.5448 30.0217Z" fill="white"/>
<path d="M71.5112 31.6982V23.2829H73.4945V31.6982H71.5112ZM72.5083 22.0885C72.1942 22.0885 71.9239 21.9844 71.6975 21.7762C71.471 21.5644 71.3578 21.3105 71.3578 21.0147C71.3578 20.7152 71.471 20.4613 71.6975 20.2531C71.9239 20.0413 72.1942 19.9354 72.5083 19.9354C72.8261 19.9354 73.0964 20.0413 73.3192 20.2531C73.5456 20.4613 73.6589 20.7152 73.6589 21.0147C73.6589 21.3105 73.5456 21.5644 73.3192 21.7762C73.0964 21.9844 72.8261 22.0885 72.5083 22.0885Z" fill="white"/>
<path d="M77.5173 26.7674V31.6982H75.534V23.2829H77.4296V24.7128H77.5282C77.7218 24.2417 78.0304 23.8673 78.4541 23.5897C78.8815 23.3121 79.4093 23.1733 80.0375 23.1733C80.6182 23.1733 81.1241 23.2975 81.5551 23.5459C81.9897 23.7942 82.3258 24.154 82.5632 24.6252C82.8042 25.0964 82.923 25.668 82.9193 26.34V31.6982H80.936V26.6468C80.936 26.0844 80.7899 25.6442 80.4977 25.3265C80.2092 25.0087 79.8092 24.8498 79.2979 24.8498C78.9509 24.8498 78.6422 24.9265 78.3719 25.0799C78.1053 25.2297 77.8953 25.447 77.7419 25.7319C77.5921 26.0168 77.5173 26.3619 77.5173 26.7674Z" fill="white"/>
<path d="M88.661 31.8626C87.8173 31.8626 87.0886 31.6873 86.475 31.3366C85.865 30.9824 85.3957 30.482 85.067 29.8355C84.7382 29.1853 84.5739 28.4201 84.5739 27.5399C84.5739 26.6742 84.7382 25.9145 85.067 25.2607C85.3993 24.6033 85.8632 24.0919 86.4586 23.7267C87.0539 23.3578 87.7534 23.1733 88.5569 23.1733C89.0756 23.1733 89.565 23.2573 90.0252 23.4253C90.4891 23.5897 90.8982 23.8454 91.2525 24.1924C91.6104 24.5394 91.8917 24.9813 92.0962 25.5182C92.3007 26.0515 92.403 26.687 92.403 27.4248V28.033H85.5053V26.6962H90.5019C90.4982 26.3163 90.4161 25.9784 90.2553 25.6826C90.0946 25.3831 89.87 25.1475 89.5815 24.9758C89.2966 24.8042 88.9642 24.7183 88.5843 24.7183C88.1789 24.7183 87.8228 24.8169 87.516 25.0142C87.2092 25.2078 86.9699 25.4634 86.7983 25.7812C86.6302 26.0953 86.5444 26.4405 86.5408 26.8167V27.9837C86.5408 28.4731 86.6302 28.8931 86.8092 29.2438C86.9882 29.5908 87.2384 29.8574 87.5598 30.0437C87.8812 30.2263 88.2574 30.3176 88.6884 30.3176C88.977 30.3176 89.2381 30.2774 89.4719 30.1971C89.7056 30.1131 89.9084 29.9907 90.08 29.83C90.2517 29.6693 90.3814 29.4702 90.469 29.2328L92.3208 29.441C92.2039 29.9304 91.9811 30.3578 91.6524 30.723C91.3274 31.0846 90.911 31.3659 90.4033 31.5668C89.8956 31.764 89.3148 31.8626 88.661 31.8626Z" fill="white"/>
<path d="M97.8064 31.8626C96.9627 31.8626 96.234 31.6873 95.6204 31.3366C95.0104 30.9824 94.5411 30.482 94.2124 29.8355C93.8836 29.1853 93.7193 28.4201 93.7193 27.5399C93.7193 26.6742 93.8836 25.9145 94.2124 25.2607C94.5447 24.6033 95.0086 24.0919 95.604 23.7267C96.1993 23.3578 96.8988 23.1733 97.7023 23.1733C98.221 23.1733 98.7104 23.2573 99.1706 23.4253C99.6345 23.5897 100.044 23.8454 100.398 24.1924C100.756 24.5394 101.037 24.9813 101.242 25.5182C101.446 26.0515 101.548 26.687 101.548 27.4248V28.033H94.6507V26.6962H99.6473C99.6436 26.3163 99.5615 25.9784 99.4007 25.6826C99.24 25.3831 99.0154 25.1475 98.7269 24.9758C98.442 24.8042 98.1096 24.7183 97.7297 24.7183C97.3243 24.7183 96.9682 24.8169 96.6614 25.0142C96.3546 25.2078 96.1153 25.4634 95.9436 25.7812C95.7756 26.0953 95.6898 26.4405 95.6861 26.8167V27.9837C95.6861 28.4731 95.7756 28.8931 95.9546 29.2438C96.1336 29.5908 96.3838 29.8574 96.7052 30.0437C97.0266 30.2263 97.4028 30.3176 97.8338 30.3176C98.1224 30.3176 98.3835 30.2774 98.6173 30.1971C98.851 30.1131 99.0538 29.9907 99.2254 29.83C99.3971 29.6693 99.5267 29.4702 99.6144 29.2328L101.466 29.441C101.349 29.9304 101.127 30.3578 100.798 30.723C100.473 31.0846 100.056 31.3659 99.5487 31.5668C99.041 31.764 98.4602 31.8626 97.8064 31.8626Z" fill="white"/>
<path d="M103.226 31.6982V23.2829H105.149V24.6855H105.237C105.39 24.1997 105.653 23.8253 106.026 23.5623C106.402 23.2957 106.831 23.1624 107.313 23.1624C107.423 23.1624 107.545 23.1678 107.68 23.1788C107.819 23.1861 107.934 23.1989 108.026 23.2171V25.0416C107.942 25.0124 107.808 24.9868 107.626 24.9649C107.447 24.9393 107.273 24.9265 107.105 24.9265C106.744 24.9265 106.419 25.005 106.13 25.1621C105.845 25.3155 105.62 25.5292 105.456 25.8031C105.292 26.0771 105.21 26.393 105.21 26.7509V31.6982H103.226Z" fill="white"/>
<path d="M109.343 31.6982V23.2829H111.327V31.6982H109.343ZM110.34 22.0885C110.026 22.0885 109.756 21.9844 109.53 21.7762C109.303 21.5644 109.19 21.3105 109.19 21.0147C109.19 20.7152 109.303 20.4613 109.53 20.2531C109.756 20.0413 110.026 19.9354 110.34 19.9354C110.658 19.9354 110.928 20.0413 111.151 20.2531C111.378 20.4613 111.491 20.7152 111.491 21.0147C111.491 21.3105 111.378 21.5644 111.151 21.7762C110.928 21.9844 110.658 22.0885 110.34 22.0885Z" fill="white"/>
<path d="M115.349 26.7674V31.6982H113.366V23.2829H115.262V24.7128H115.36C115.554 24.2417 115.863 23.8673 116.286 23.5897C116.714 23.3121 117.241 23.1733 117.87 23.1733C118.45 23.1733 118.956 23.2975 119.387 23.5459C119.822 23.7942 120.158 24.154 120.395 24.6252C120.636 25.0964 120.755 25.668 120.751 26.34V31.6982H118.768V26.6468C118.768 26.0844 118.622 25.6442 118.33 25.3265C118.041 25.0087 117.641 24.8498 117.13 24.8498C116.783 24.8498 116.474 24.9265 116.204 25.0799C115.937 25.2297 115.727 25.447 115.574 25.7319C115.424 26.0168 115.349 26.3619 115.349 26.7674Z" fill="white"/>
<path d="M126.427 35.0293C125.715 35.0293 125.103 34.9325 124.592 34.7389C124.081 34.549 123.67 34.2933 123.359 33.9719C123.049 33.6505 122.833 33.2944 122.713 32.9036L124.499 32.4707C124.579 32.6351 124.696 32.7976 124.85 32.9584C125.003 33.1227 125.209 33.2579 125.469 33.3638C125.732 33.4734 126.062 33.5281 126.46 33.5281C127.023 33.5281 127.488 33.3912 127.857 33.1172C128.226 32.847 128.411 32.4014 128.411 31.7804V30.1861H128.312C128.21 30.3907 128.06 30.6007 127.863 30.8162C127.669 31.0317 127.412 31.2125 127.09 31.3586C126.773 31.5047 126.373 31.5777 125.89 31.5777C125.244 31.5777 124.658 31.4261 124.132 31.123C123.609 30.8162 123.193 30.3596 122.883 29.7533C122.576 29.1433 122.422 28.38 122.422 27.4632C122.422 26.5391 122.576 25.7593 122.883 25.1238C123.193 24.4846 123.611 24.0006 124.137 23.6719C124.663 23.3395 125.249 23.1733 125.896 23.1733C126.389 23.1733 126.794 23.2573 127.112 23.4253C127.434 23.5897 127.689 23.7888 127.879 24.0225C128.069 24.2526 128.213 24.47 128.312 24.6745H128.422V23.2829H130.378V31.8352C130.378 32.5548 130.206 33.1501 129.863 33.6213C129.519 34.0925 129.05 34.4449 128.455 34.6787C127.859 34.9124 127.183 35.0293 126.427 35.0293ZM126.444 30.0217C126.864 30.0217 127.222 29.9195 127.518 29.7149C127.814 29.5104 128.038 29.2164 128.192 28.8329C128.345 28.4493 128.422 27.9891 128.422 27.4522C128.422 26.9226 128.345 26.4587 128.192 26.0606C128.042 25.6625 127.819 25.3539 127.523 25.1347C127.231 24.9119 126.871 24.8005 126.444 24.8005C126.002 24.8005 125.633 24.9156 125.337 25.1457C125.041 25.3758 124.818 25.6917 124.669 26.0935C124.519 26.4916 124.444 26.9445 124.444 27.4522C124.444 27.9672 124.519 28.4183 124.669 28.8055C124.822 29.189 125.047 29.4885 125.343 29.704C125.642 29.9158 126.009 30.0217 126.444 30.0217Z" fill="white"/>
<path fill-rule="evenodd" clip-rule="evenodd" d="M23.8809 14.6764C24.4286 15.2242 25.3167 15.2242 25.8644 14.6764C26.4121 14.1287 26.4121 13.2406 25.8644 12.6929L18.6386 5.46706L27.3877 0.415764C29.4338 -0.765544 31.9914 0.711092 31.9914 3.07371L31.9914 18.5109L21.4153 21.0411C20.6619 21.2213 20.1973 21.9781 20.3776 22.7315C20.5578 23.4848 21.3146 23.9494 22.068 23.7692L31.9914 21.3952V32.9263C31.9913 35.2889 29.4337 36.7655 27.3877 35.5842L15.2153 28.5565L16.9185 16.2554C17.0247 15.4881 16.4889 14.78 15.7216 14.6737C14.9543 14.5675 14.2461 15.1034 14.1399 15.8707L12.593 27.0425L1.53456 20.6579C-0.511522 19.4766 -0.51152 16.5234 1.53456 15.3421L16.1236 6.9191L23.8809 14.6764Z" fill="url(#paint0_linear_2483_59812)"/>
<defs>
<linearGradient id="paint0_linear_2483_59812" x1="12.4828" y1="5.61024" x2="31.9783" y2="35.9055" gradientUnits="userSpaceOnUse">
<stop stop-color="#FF61A2"/>
<stop offset="1" stop-color="#D8005A"/>
</linearGradient>
</defs>
</svg>
